<?xml version="1.0" encoding="utf-8"?>
<!-- Generator: Adobe Illustrator 17.0.0, SVG Export Plug-In . SVG Version: 6.00 Build 0)  -->
<!DOCTYPE svg PUBLIC "-//W3C//DTD SVG 1.1//EN" "http://www.w3.org/Graphics/SVG/1.1/DTD/svg11.dtd">
<svg version="1.1" id="Calque_1" xmlns="http://www.w3.org/2000/svg" xmlns:xlink="http://www.w3.org/1999/xlink" x="0px" y="0px"
	 width="141px" height="85px" viewBox="0 0 141 85" enable-background="new 0 0 141 85" xml:space="preserve">
<rect x="-6" y="-3.332" fill="#D73533" width="153" height="90.029"/>
<g>
	<g>
		<path fill="#FFFFFF" d="M3.113,5.088h15.341l8.65,25.806l8.614-25.806h15.738v2.396H48.04c-0.845,0-1.427,0.154-1.747,0.464
			c-0.319,0.309-0.479,0.842-0.479,1.597v35.491c0,0.738,0.172,1.245,0.517,1.519c0.517,0.412,1.217,0.619,2.096,0.619h89.46v2.395
			H32.061v-2.395h3.657c0.67,0,1.18-0.189,1.533-0.567c0.352-0.377,0.528-0.901,0.528-1.571V7.483L25.675,43.179h-2.278
			L11.328,7.175v64.574c0,1.597,0.506,2.906,1.519,3.928c1.013,1.022,2.481,1.636,4.404,1.841v2.395H3.113v-2.395
			c1.786-0.155,3.173-0.782,4.159-1.88c0.987-1.098,1.48-39.231,1.48-40.931V10.085c0-1.048-0.18-1.743-0.541-2.086
			c-0.36-0.343-1.056-0.515-2.085-0.515H3.113V5.088z"/>
		<path fill="#FFFFFF" d="M69.096,17.733c2.695,0,5.172,0.584,7.431,1.751c2.257,1.168,3.937,2.692,5.034,4.571
			c1.099,1.879,1.648,4.143,1.648,6.786c0,4.224-1.439,7.465-4.314,9.723c-2.876,2.258-6.134,3.386-9.774,3.386
			c-2.575,0-4.932-0.579-7.069-1.738c-2.138-1.159-3.782-2.721-4.932-4.688c-1.15-1.966-1.726-4.185-1.726-6.658
			c0-3.726,1.3-6.846,3.902-9.362C61.899,18.992,65.165,17.733,69.096,17.733z M69.25,20.181c-1.786,0-3.206,0.785-4.262,2.357
			c-1.056,1.571-1.584,4.332-1.584,8.28c0,4.104,0.523,6.932,1.571,8.486c1.048,1.555,2.463,2.331,4.249,2.331
			c1.82,0,3.288-0.798,4.404-2.395c1.116-1.597,1.674-4.352,1.674-8.267c0-4.018-0.549-6.821-1.648-8.409
			C72.555,20.974,71.088,20.181,69.25,20.181z"/>
		<path fill="#FFFFFF" d="M95.418,9.158h2.292v9.916h7.959v2.782H97.71V37.18c0,1.013,0.259,1.799,0.776,2.357
			c0.517,0.558,1.198,0.837,2.042,0.837c2.414,0,3.689-2.241,3.827-6.722h2.292c-0.052,2.387-0.43,4.305-1.133,5.756
			c-0.704,1.451-1.712,2.572-3.026,3.361c-1.313,0.79-2.795,1.185-4.443,1.185c-1.443,0-2.691-0.291-3.747-0.875
			c-1.057-0.583-1.898-1.455-2.524-2.614s-0.939-2.416-0.939-3.773V21.854H86.56v-2.37c2.617-0.343,4.658-1.348,6.121-3.013
			C94.144,14.806,95.057,12.369,95.418,9.158z"/>
		<path fill="#FFFFFF" d="M123.774,17.733c2.695,0,5.172,0.584,7.431,1.751c2.257,1.168,3.937,2.692,5.034,4.571
			c1.099,1.879,1.648,4.143,1.648,6.786c0,4.224-1.439,7.465-4.314,9.723c-2.876,2.258-6.134,3.386-9.773,3.386
			c-2.576,0-4.932-0.579-7.069-1.738s-3.782-2.721-4.932-4.688c-1.15-1.966-1.725-4.185-1.725-6.658
			c0-3.726,1.299-6.846,3.901-9.362C116.575,18.992,119.843,17.733,123.774,17.733z M123.928,20.181
			c-1.786,0-3.206,0.785-4.262,2.357c-1.056,1.572-1.584,4.332-1.584,8.28c0,4.104,0.524,6.932,1.571,8.486
			c1.048,1.555,2.464,2.331,4.25,2.331c1.82,0,3.288-0.798,4.404-2.395c1.116-1.597,1.674-4.352,1.674-8.267
			c0-4.018-0.549-6.821-1.648-8.409C127.233,20.974,125.765,20.181,123.928,20.181z"/>
	</g>
	<rect x="23.01" y="55.167" fill="#FFFFFF" width="114.782" height="23.333"/>
	<g>
		<path fill="#D73533" d="M57.197,77.121l0.804,1.377c-0.777,0.535-1.475,0.905-2.094,1.109c-0.619,0.203-1.297,0.305-2.036,0.305
			c-1.096,0-1.983-0.232-2.657-0.697c-0.676-0.466-1.294-1.342-1.855-2.629c-1.3,1.287-2.466,2.164-3.499,2.629
			c-1.033,0.466-2.199,0.697-3.5,0.697c-1.798,0-3.199-0.414-4.207-1.243s-1.51-1.88-1.51-3.155c0-1.925,0.93-3.467,2.792-4.627
			c1.491-0.918,4.761-1.836,9.809-2.754v-2.582c0-1.02-0.338-1.851-1.014-2.496c-0.676-0.643-1.581-0.966-2.715-0.966
			c-0.868,0-1.632,0.186-2.294,0.555c-0.447,0.242-0.67,0.484-0.67,0.726c0,0.127,0.083,0.318,0.249,0.573
			c0.356,0.574,0.535,1.141,0.535,1.702c0,0.714-0.236,1.29-0.707,1.73s-1.102,0.66-1.893,0.66c-0.842,0-1.517-0.239-2.027-0.717
			c-0.51-0.478-0.765-1.093-0.765-1.844c0-1.237,0.67-2.327,2.009-3.27c1.669-1.173,3.748-1.759,6.234-1.759
			c1.874,0,3.538,0.293,4.991,0.879c0.93,0.37,1.685,1.016,2.265,1.941c0.58,0.924,0.87,2.061,0.87,3.413v9.083
			c0,0.687,0.127,1.185,0.383,1.491c0.255,0.306,0.605,0.459,1.052,0.459C56.113,77.714,56.598,77.516,57.197,77.121z
			 M49.242,69.798c-2.728,0.37-4.573,0.94-5.535,1.711c-0.962,0.771-1.444,1.789-1.444,3.05c0,0.891,0.226,1.577,0.678,2.054
			s1.086,0.717,1.903,0.717c1.262,0,2.31-0.452,3.146-1.357c0.835-0.904,1.253-2.141,1.253-3.71L49.242,69.798L49.242,69.798z"/>
		<path fill="#D73533" d="M77.925,72.876l1.491,0.707c-0.777,2.014-1.976,3.573-3.594,4.675c-1.619,1.102-3.545,1.653-5.775,1.653
			c-3.021,0-5.379-0.825-7.074-2.475c-1.695-1.65-2.544-3.873-2.544-6.663c0-3.008,1.005-5.482,3.011-7.42
			c2.009-1.937,4.669-2.906,7.983-2.906c2.384,0,4.207,0.481,5.469,1.443c1.262,0.963,1.893,2.127,1.893,3.49
			c0,0.995-0.278,1.782-0.832,2.362c-0.555,0.58-1.284,0.87-2.19,0.87c-0.791,0-1.419-0.227-1.884-0.679
			c-0.466-0.453-0.697-1.043-0.697-1.769c0-0.624,0.255-1.35,0.765-2.179c0.217-0.345,0.325-0.587,0.325-0.726
			c0-0.256-0.198-0.484-0.595-0.688c-0.562-0.318-1.297-0.478-2.204-0.478c-1.687,0-2.908,0.535-3.662,1.606
			c-1.01,1.416-1.513,3.557-1.513,6.425c0,2.869,0.5,4.886,1.503,6.053c1.003,1.166,2.295,1.75,3.878,1.75
			c1.252,0,2.429-0.418,3.534-1.254C76.319,75.836,77.222,74.572,77.925,72.876z"/>
		<path fill="#D73533" d="M87.829,54.08h1.702v7.361h5.908v2.065h-5.908v11.377c0,0.753,0.192,1.336,0.576,1.75
			c0.384,0.415,0.889,0.622,1.516,0.622c1.792,0,2.739-1.664,2.84-4.991h1.702c-0.039,1.772-0.318,3.196-0.842,4.274
			s-1.271,1.909-2.247,2.495c-0.976,0.586-2.074,0.879-3.298,0.879c-1.07,0-1.999-0.217-2.783-0.65
			c-0.784-0.433-1.409-1.08-1.873-1.94c-0.467-0.861-0.698-1.795-0.698-2.801V63.508h-3.174v-1.76
			c1.943-0.255,3.458-1.001,4.544-2.237C86.884,58.274,87.562,56.463,87.829,54.08z"/>
		<path fill="#D73533" d="M98.652,61.441l7.993-0.459v11.931c0,1.109,0.297,1.986,0.893,2.629c0.597,0.644,1.37,0.966,2.321,0.966
			c1.345,0,2.42-0.535,3.225-1.606s1.208-2.327,1.208-3.767v-5.852c0-0.688-0.19-1.211-0.573-1.568
			c-0.383-0.356-0.905-0.535-1.568-0.535h-0.879v-1.74l8.088-0.459v14.493c0,0.65,0.201,1.16,0.602,1.53s0.933,0.555,1.597,0.555
			h0.822v1.778l-7.42,0.229c-0.306-1.274-0.483-2.638-0.535-4.092c-1.233,1.568-2.421,2.671-3.565,3.308
			c-1.144,0.638-2.333,0.956-3.566,0.956c-1.221,0-2.246-0.255-3.079-0.765c-0.833-0.51-1.497-1.319-1.993-2.428
			c-0.495-1.108-0.743-2.453-0.743-4.034v-7.113c0-0.777-0.198-1.335-0.593-1.673c-0.395-0.338-1.141-0.519-2.237-0.545v-1.74
			H98.652z"/>
	</g>
</g>
</svg>
